<svg xmlns="http://www.w3.org/2000/svg" xmlns:xlink="http://www.w3.org/1999/xlink" xmlns:svgjs="http://svgjs.com/svgjs" width="512" height="512" x="0" y="0" viewBox="0 0 512 512" style="enable-background:new 0 0 512 512" xml:space="preserve" class=""><g><g xmlns="http://www.w3.org/2000/svg"><path d="m496 0h-480c-8.284 0-15 6.716-15 15v180c0 8.284 6.716 15 15 15h120c8.284 0 15-6.716 15-15v-45h90v45c0 8.284 6.716 15 15 15h240c8.284 0 15-6.716 15-15v-180c0-8.284-6.716-15-15-15zm-225 90h90v30h-90zm120 0h90v30h-90zm90-30h-90v-30h90zm-120 0h-90v-30h90zm-120 0h-90v-30h90zm-210 60v-30h90v30zm0-90h90v30h-90zm90 150h-90v-30h90zm30-90h90v30h-90zm120 60h90v30h-90zm210 30h-90v-30h90z" fill="#124d6d" data-original="#000000" style=""></path><path d="m326 422h-140c-24.813 0-45 20.187-45 45s20.187 45 45 45h140c24.813 0 45-20.187 45-45s-20.187-45-45-45zm0 60h-140c-8.271 0-15-6.729-15-15s6.729-15 15-15h140c8.271 0 15 6.729 15 15s-6.729 15-15 15z" fill="#124d6d" data-original="#000000" style=""></path><path d="m366 270c-24.813 0-45 20.187-45 45s20.187 45 45 45 45-20.187 45-45-20.187-45-45-45zm0 60c-8.271 0-15-6.729-15-15s6.729-15 15-15 15 6.729 15 15-6.729 15-15 15z" fill="#124d6d" data-original="#000000" style=""></path></g></g></svg>