<svg xmlns="http://www.w3.org/2000/svg" xmlns:xlink="http://www.w3.org/1999/xlink" width="82px" height="38px" viewBox="0 0 82 38"><defs></defs><g id="Symbols" stroke="none" stroke-width="1" fill="none" fill-rule="evenodd"><g id="mobile-header---promo-1" transform="translate(-146.000000, -47.000000)" fill="#E1261C" fill-rule="nonzero"><g id="Group-3" transform="translate(0.000000, 39.000000)"><g id="Asset-1" transform="translate(146.500000, 8.051985)"><g id="Group"><path d="M57.5197318,30.6123615 C58.6622542,30.8834685 59.2625625,31.2998114 59.2625625,32.200274 C59.2625625,33.1007365 58.4686063,33.826916 57.3260839,33.826916 C56.4927627,33.832006 55.6878059,33.5245333 55.0700863,32.965183 L55.6413475,32.2874155 C56.1017776,32.7314204 56.715503,32.9810715 57.3551311,32.9845478 C57.9457571,32.9845478 58.3233704,32.7134408 58.3233704,32.2970979 C58.3233704,31.880755 58.1006754,31.6967895 57.1033889,31.4644121 C55.9511841,31.1933051 55.3024638,30.8544213 55.2927814,29.8474525 C55.3113994,29.3881206 55.5201519,28.957207 55.8690594,28.6578811 C56.2179668,28.3585553 56.6756159,28.2177664 57.1324361,28.2692224 C57.8375012,28.2606746 58.5230695,28.5006235 59.0689147,28.9469899 L58.5557478,29.663487 C58.1387514,29.3234861 57.6217617,29.129615 57.0840241,29.1115906 C56.5224453,29.1115906 56.2029263,29.4020624 56.2029263,29.7603109 C56.2029263,30.1185595 56.4740333,30.3315721 57.5197318,30.6123615 Z" id="Shape"></path><path d="M61.7993495,32.4616986 C61.3636418,32.8296295 61.5476073,32.9748654 61.8671263,32.9748654 C62.1696856,32.9427698 62.4702813,32.8942866 62.7675888,32.8296295 L62.7675888,33.5751738 C62.52279,33.7137908 62.2452165,33.7840203 61.9639502,33.778504 C61.6468258,33.8398204 61.3200086,33.738964 61.0925886,33.5096002 C60.8651686,33.2802365 60.7670972,32.9525728 60.8311102,32.6359817 L60.8311102,29.983006 L59.8628709,29.983006 L59.8628709,30.9512453 L60.8311102,30.9512453 L60.8311102,29.0147667 L61.7993495,29.0147667 L61.7993495,29.983006 L62.7675888,29.983006 L62.7675888,30.9512453 L61.7993495,30.9512453 L61.7993495,32.4616986 Z" id="Shape"></path><path d="M65.2365991,33.8172336 C64.6667937,33.8329223 64.1148667,33.6174845 63.7063669,33.2199267 C63.2978672,32.8223689 63.0675271,32.2764931 63.067743,31.7064719 C63.0401204,30.818808 63.5540881,30.0032345 64.3667826,29.6451314 C65.1794772,29.2870284 66.1281926,29.4580902 66.7646355,30.0774856 C67.4010785,30.696881 67.5978295,31.6406034 67.2619184,32.462719 C66.9260074,33.2848345 66.1246857,33.820751 65.2365991,33.8172336 Z M65.2365991,30.3799841 C64.8965967,30.3793088 64.5714896,30.5194403 64.3385208,30.7670843 C64.105552,31.0147283 63.985517,31.3477794 64.0069351,31.6871071 C63.9911214,32.0292102 64.1153856,32.3629878 64.3510684,32.6114595 C64.5867512,32.8599313 64.913503,33.0016435 65.2559638,33.0039126 C65.5959662,33.0045879 65.9210733,32.8644564 66.1540421,32.6168124 C66.3870109,32.3691683 66.5070459,32.0361172 66.4856278,31.6967895 C66.4990869,31.346981 66.3673752,31.0071633 66.1216806,30.7578015 C65.8759859,30.5084397 65.5381566,30.3717084 65.1881871,30.3799841 L65.2365991,30.3799841 Z" id="Shape"></path><path d="M69.5549464,33.8365984 L68.586707,33.8365984 L68.586707,29.9636412 L69.5549464,29.9636412 L69.5549464,30.5542671 C69.5549464,30.5542671 70.039066,29.5279335 70.5231857,29.5860278 L70.5231857,30.9609277 L70.7071511,30.9609277 C69.8841477,30.5833143 69.3128865,31.1158459 69.5549464,32.200274 L69.5549464,33.8365984 Z" id="Shape"></path><path d="M73.3213972,32.9264534 C73.7428165,32.9263447 74.1442439,32.7467588 74.4251901,32.4326514 L74.9770865,32.9167711 C74.3506317,33.6757606 73.2857847,33.9067985 72.4011133,33.4756752 C71.516442,33.0445519 71.0422723,32.0635111 71.2540487,31.1024381 C71.4658252,30.141365 72.3084113,29.4504769 73.2923501,29.4311096 C73.8800896,29.472081 74.4215275,29.7647928 74.7776926,30.2341145 C75.1338577,30.7034363 75.2700706,31.3036705 75.1513695,31.880755 L72.1401453,31.880755 C72.1914345,32.4888566 72.7115643,32.9492994 73.3213972,32.9264534 Z M74.2315422,30.9221981 C74.2367254,30.6422801 74.130475,30.3717725 73.9361743,30.1702082 C73.7418735,29.9686439 73.4754458,29.8525415 73.1955261,29.8474525 C72.61597,29.872709 72.1548612,30.3422785 72.1401453,30.9221981 L74.2315422,30.9221981 Z" id="Shape"></path><path d="M77.504191,33.7688216 C76.8756914,33.7583758 76.2675392,33.5443333 75.7710427,33.1588309 L76.1873856,32.5197929 C76.5678982,32.8254474 77.0359556,33.0018169 77.5235558,33.0232774 C77.8182267,32.978342 78.0829499,32.8181148 78.2594177,32.5778873 C77.9667354,32.3405782 77.6404287,32.1480572 77.2911784,32.0066261 C76.69087,31.8420254 76.3229391,30.8060094 76.3229391,30.8060094 C76.3229391,30.8060094 76.6037285,29.5569807 77.4170495,29.5569807 C77.9502101,29.5641173 78.4704845,29.7218779 78.9178204,30.0120531 L78.5498895,30.6801383 C78.2059776,30.4531586 77.808872,30.3196778 77.3976847,30.2928425 C77.0297538,30.2928425 77.2911784,30.699503 77.2911784,30.699503 C77.285685,30.9905079 77.4897348,31.2435297 77.775298,31.2998114 C78.3403656,31.5989345 78.8431603,32.003142 79.2567042,32.4907458 C79.2567042,32.4907458 78.3562416,33.7688216 77.504191,33.7688216 Z" id="Shape"></path><path d="M50.5871384,27.765738 C50.1776422,29.0351272 49.5193347,30.2102061 48.6506598,31.2223523 C46.414027,33.8075512 42.7056704,35.7924418 39.2200089,35.5891115 C36.1410079,35.4148285 35.4051461,32.2680507 37.4190838,30.2153834 C38.4464283,29.1675895 39.7072519,28.3779157 41.0983932,27.9109738 C43.3653068,27.1113245 45.6891894,26.4834231 48.0503514,26.0325896 C49.0185907,25.8292593 50.209525,25.5484699 51.1293524,25.4322812 C51.0277765,26.2232362 50.8461058,27.0018253 50.5871384,27.7560556 M18.3447695,23.3699315 C18.2952233,22.9568571 18.3115639,22.5385361 18.3931815,22.1305852 C18.480323,21.7142423 18.5674646,21.3656761 18.6739709,20.9493332 C18.8360943,20.2338463 19.0696429,19.5364441 19.3711032,18.8676187 C19.5003736,18.5166264 19.6868604,18.1894566 19.9229996,17.8993794 C19.9918892,17.8075266 20.1097607,17.7668693 20.2206289,17.7967184 C20.3314971,17.8265675 20.4130228,17.9209087 20.426484,18.0349329 C20.4850091,18.3550262 20.4850091,18.683079 20.426484,19.0031722 C20.2916801,19.7148337 20.0705801,20.407397 19.7680813,21.065522 C19.498434,21.7602875 19.1299325,22.4125026 18.6739709,23.0020006 L18.3350871,23.3602491 M8.49777578,8.73015322 C9.67019892,7.41461736 11.0386092,6.28788339 12.5546985,5.38972761 C15.0818031,3.92768626 17.6379548,2.41723295 21.2107579,2.08803159 C22.5303555,1.95258073 23.8521982,2.3228351 24.909432,3.12404764 C25.9288553,3.91621705 26.440027,5.19785028 26.2456022,6.47415564 C25.9551305,9.11744894 23.9896047,10.7634558 22.0143965,11.7994718 C21.5980536,12.0221669 21.1623459,12.2158147 20.7266382,12.3900978 C19.8947941,12.7203619 19.0364406,12.9794875 18.160804,13.1646892 C17.2395473,13.362778 16.3037425,13.485825 15.3625925,13.5326202 C14.9365672,13.5326202 14.5105419,13.5326202 14.0845166,13.5326202 C12.6114993,13.514143 11.149489,13.2759136 9.74680449,12.8258055 C9.44987777,12.7289815 9.15617851,12.6192478 8.86570672,12.4966041 C8.36222228,12.2932739 7.89746741,12.051214 7.38430058,11.7994718 L7.30684144,11.7994718 C6.99684695,11.6411321 6.69909429,11.4598914 6.41606128,11.2572578 C7.07446401,10.3955248 7.75223152,9.54347423 8.48809339,8.73983561 M72.84696,23.1666013 C69.3322513,22.692164 56.4933981,23.0697773 52.7075824,23.6119913 C52.6843805,23.5486559 52.6649812,23.4839915 52.6494881,23.4183435 C52.3276025,22.1644965 51.8114141,20.9687689 51.11967,19.8745876 C50.773159,19.3374162 50.388077,18.8261309 49.9674652,18.3447695 C49.6921803,17.9619103 49.291277,17.6877883 48.8346252,17.5701781 C48.311776,17.5701781 47.9632099,18.0155682 47.7308324,18.3254047 C47.498455,18.6352413 47.3919487,18.8192068 47.2467128,19.070949 C46.9756058,19.5260215 46.7335459,20.0391883 46.4624389,20.4652136 C46.365615,20.6298143 46.2687911,20.8040973 46.1622847,20.968698 C45.9826421,21.2340075 45.788708,21.489354 45.5813412,21.7336071 C45.4475384,21.9079889 45.2949265,22.0670949 45.1262687,22.2080443 C45.0464801,22.2711901 44.9585476,22.3232982 44.8648441,22.3629626 C44.738973,22.4113746 44.5646899,22.4888337 44.467866,22.3629626 C44.3906321,22.2486931 44.3500983,22.1135803 44.3516772,21.9756669 C44.3488798,21.6516436 44.3715417,21.3279012 44.419454,21.0074276 C44.4892741,20.638149 44.5996775,20.2777141 44.7486554,19.932682 C44.8745265,19.6034806 45.0584919,19.293644 45.1940454,18.9644427 C45.2603033,18.8224038 45.309072,18.6728464 45.3392813,18.5190526 C45.3392813,18.4222287 45.3392813,18.2382632 45.3392813,18.160804 C45.1926663,17.9680425 44.969393,17.8486636 44.7276665,17.8337881 C44.4859399,17.8189126 44.2497141,17.9100146 44.0805702,18.0833449 C43.6842446,18.6745577 43.3927369,19.3296311 43.2188373,20.0198235 C42.8795881,20.8884897 42.6676136,21.8016108 42.5894817,22.7308936 C42.427951,23.1016936 42.1866119,23.4322952 41.882667,23.6991329 C41.0402988,24.1735701 41.069346,22.963271 41.0983932,22.4597866 C41.1478236,21.8455467 41.2318713,21.234585 41.3501354,20.6298143 C41.4275945,20.2425186 41.7567959,19.7390341 41.5921952,19.342056 C41.4275945,18.9450779 40.6239559,18.7611124 40.2463426,18.6158765 C39.957555,18.5208658 39.6633271,18.4432673 39.3652448,18.3834991 C39.0069963,18.3060399 38.3970055,18.1511217 38.1258985,18.4900054 C37.9611455,18.748982 37.8645552,19.0454146 37.8451091,19.3517384 C37.6514613,20.4652136 37.6224141,21.5980536 37.3513071,22.692164 C37.2126442,23.1874529 37.0245039,23.667535 36.7897283,24.1251582 C36.2475143,25.2579982 35.821489,23.6700857 36.0054544,23.0504125 C36.1894199,22.2370915 36.8090931,20.3974368 36.9736937,19.5841158 C37.0734569,19.2645463 37.0292943,18.9173872 36.8526977,18.6329737 C36.6761011,18.3485602 36.3845342,18.1550182 36.0538664,18.1027097 C35.7827594,18.1027097 35.5406996,18.160804 35.4729228,18.4319111 C35.2211806,19.5066567 35.1630862,20.2231538 34.9694384,21.336629 C34.9210264,21.607736 34.6111898,23.7862744 34.0011991,23.2731076 C33.3912083,22.7599407 33.8850104,21.1913931 34.049611,20.5717199 C34.390354,19.8639798 34.5752545,19.0913598 34.5918251,18.3060399 C34.5620431,18.1134214 34.4529848,17.9420666 34.2910957,17.8335273 C34.1292066,17.724988 33.9292721,17.6891772 33.7397745,17.7347788 C33.23629,17.8122379 33.0813717,18.480323 32.9458182,18.8869835 C32.5608783,19.9946117 32.2376359,21.1227275 31.9775789,22.2661387 C31.8904374,22.6340696 31.1933051,25.1708566 30.7382326,24.8707024 C30.5349024,24.7254665 30.6510911,23.776592 30.7382326,23.4377083 C30.9318805,22.6727992 30.8544213,22.5856577 31.0577516,21.8207486 C31.486461,20.0827525 32.019968,18.3722968 32.6553464,16.6987627 C32.7134408,16.5632092 32.7812176,16.4373381 32.8199471,16.3501965 C34.5337307,16.263055 36.2281495,15.991948 37.9322507,15.8370297 L39.8687293,15.6627466 L40.8369686,15.5852875 C41.1080756,15.5852875 41.388865,15.5368755 41.659972,15.5175107 C41.9876139,15.4711258 42.3162545,15.5952789 42.5313874,15.8467121 C42.5956094,15.9575871 42.6667546,16.0643049 42.7444,16.1662311 C42.8920169,16.4041389 43.1632563,16.5359914 43.4415323,16.5051148 C44.0418407,16.3986085 44.2839005,15.5368755 44.0708878,14.7913313 C43.8578752,14.045787 43.3156612,13.9489631 42.5797993,13.8908687 C41.2208456,13.9005855 39.8646093,14.0138749 38.5228766,14.2297525 C35.9086305,14.4427651 35.6762531,14.5492714 33.3912083,14.6751425 C33.4493027,14.4814947 33.5170794,14.3362588 33.555809,14.2103877 C33.8113185,13.5316849 34.0310874,12.8400593 34.2142117,12.1383556 C34.4078596,11.3443993 34.2819885,10.6375846 33.4008907,10.6569494 C32.7908999,10.6569494 32.5197929,11.1701163 32.3455099,11.6929655 C31.9969437,12.7192992 31.6483776,13.7359504 31.2707642,14.7622841 C30.5030788,14.8891675 29.7244999,14.9378286 28.9469899,14.90752 C28.4144583,14.90752 27.8819267,14.90752 27.3590774,14.8494256 C26.6716275,14.7719665 26.7878163,14.4234003 26.3908381,13.8811863 C25.722753,12.912947 24.3478532,13.997375 24.2703941,14.8494256 C24.2122997,15.5659227 24.86102,15.991948 25.4322812,16.1952783 C26.7398647,16.5347617 28.0994049,16.6267113 29.4407919,16.4663853 L29.9055468,16.4663853 C30.1379242,16.4663853 30.476808,16.4663853 30.7575974,16.4663853 C30.7575974,16.6503507 30.6607735,16.8149514 30.6123615,17.0085993 C30.2153834,18.4996878 29.7699933,20.0585531 29.3730152,21.5496416 C29.2761913,21.9175725 28.4047759,25.4710108 27.717326,24.5027715 C27.4074894,24.0864286 27.9303386,22.2951859 28.0465273,21.8594782 C28.2692224,20.9880628 28.8114364,19.3226912 27.5139957,19.2258673 C26.4876621,19.1484081 26.0325896,20.1360122 25.6743411,20.7363206 C25.4613284,19.9907763 25.8002122,18.4996878 24.7061017,18.5868293 C24.5172885,18.6018952 24.3363274,18.6689178 24.1832525,18.7804772 C23.9360008,18.9970799 23.7435571,19.2691555 23.6216737,19.5744334 C23.4764378,19.8649052 23.2924724,20.1456946 23.1278717,20.426484 L22.7599407,21.0267924 C22.2871053,21.9205958 21.7294147,22.7668589 21.0945691,23.553897 C20.8040973,23.8637336 20.4845784,24.1542053 20.1263298,24.4349947 C20.0004587,24.5415011 19.1580905,25.3160925 19.0031722,25.0353031 L19.2839616,24.6770546 C20.697591,22.963271 22.5081985,20.8040973 22.101538,18.3834991 C22.0236963,17.1922632 21.0092276,16.2809608 19.8164933,16.3308318 C18.2285808,16.4663853 17.3281182,18.4028639 16.9989169,19.7874461 C16.6070704,21.5303428 16.4700909,23.3208598 16.5922564,25.1030799 C15.0310292,26.3955672 13.1697739,27.2745858 11.1797987,27.6592316 C8.9214611,28.1246767 6.58273836,27.3926821 4.9927495,25.722753 C3.60740993,24.1332772 2.87417653,22.0788402 2.94008217,19.9714115 C2.96313701,17.519927 3.66710223,15.123093 4.97338471,13.0485005 C5.05605577,12.8759741 5.15322884,12.7107799 5.26385651,12.5546985 L5.56401069,12.7483463 L5.89321205,12.9516766 C6.17722892,13.1195047 6.47092817,13.274423 6.77430982,13.4164315 C7.70739872,13.8363615 8.68059859,14.1607615 9.67902774,14.3846708 C11.3318211,14.819061 13.0339995,15.0371221 14.7429193,15.0333911 C15.2399488,15.0333911 15.7337509,15.0011164 16.2243254,14.9365672 C18.8522556,14.7255501 21.398068,13.9210866 23.6700857,12.5837457 C24.3238343,12.1689895 24.933732,11.6888572 25.4903756,11.1507515 C26.9165875,9.87676546 27.8145866,8.11530568 28.0077978,6.21273102 C28.2350379,4.23296055 27.2800201,2.30397635 25.5678347,1.28439296 C23.7401575,0.331185979 21.6337504,0.0567355495 19.6228454,0.509801518 C15.2031172,1.3393333 11.1061435,3.39620872 7.80064348,6.44510846 C6.68968893,7.42105568 5.6539601,8.47944108 4.70227771,9.61125098 C4.49894745,9.34982637 4.08260455,8.85602433 4.04387498,8.79792997 L3.85022712,8.49777578 C3.48229618,7.90714981 3.22087157,7.26811187 2.82389346,6.68716828 C2.42691534,6.1062247 1.80724219,5.63178744 1.18756903,6.12558949 C0.567895877,6.61939153 0.955191599,7.48112451 1.18756903,8.0620681 C1.81406217,9.21148561 2.60689135,10.2620658 3.54039054,11.1797987 C3.39515465,11.3928113 3.24991875,11.6155063 3.10468286,11.8382014 C1.76522097,14.0056594 0.848590469,16.407297 0.403295195,18.9160307 C0.204974591,20.3886896 0.337278828,21.8870351 0.790590917,23.3021548 C1.20209824,24.4982776 1.86204516,25.5937895 2.72706953,26.5167092 C4.54039195,28.5651232 7.16695651,29.7064913 9.90172278,29.6344398 C12.6222528,29.5464453 15.238437,28.566652 17.347483,26.8459106 C19.0612666,27.4946309 20.4555312,26.3908381 21.336629,25.5387875 L21.878843,24.9965735 C22.1894453,24.6800592 22.4713408,24.3366003 22.7212112,23.9702399 C22.8462968,23.7772279 22.959469,23.5767514 23.0600949,23.3699315 L23.3699315,22.7308936 C23.3699315,22.7308936 23.5442146,22.3145507 23.6119913,22.3532802 C23.6934851,22.3908634 23.7407023,22.4774283 23.72818,22.5662929 C23.6811971,23.1995123 23.6003952,23.8297673 23.4861202,24.4543595 C23.4183435,24.9868911 23.0697773,25.8486241 23.4861202,26.1390959 C23.9035266,26.3827496 24.4300017,26.332052 24.7932433,26.0132248 C25.1744774,25.3267249 25.4672766,24.5947271 25.6646587,23.8346864 C25.7964516,23.427861 26.0297084,23.0613146 26.3424262,22.7696231 C26.7974986,22.4985161 26.5070269,23.2634252 26.4682973,23.4183435 C26.2262375,24.2897588 25.8486241,25.1224446 26.4682973,25.9164009 C26.7880724,26.2445113 27.22088,26.4384091 27.6785964,26.4586149 C28.1049303,26.4639686 28.5274844,26.3781373 28.9179427,26.2068727 C29.5182511,28.0465273 31.2417171,26.8943226 32.0259909,25.6937058 C32.1964552,25.3901749 32.3235613,25.0642618 32.4036042,24.7254665 C32.4534718,25.1525799 32.7262219,25.5211611 33.1201013,25.6937058 C33.43233,25.8102318 33.776112,25.8102318 34.0883406,25.6937058 C34.1561174,25.6937058 34.6789666,25.4419636 34.7661081,25.3935517 C35.4826052,26.5651212 36.3733854,26.361791 37.5449549,25.1611742 C37.8775315,24.7400401 38.1212734,24.25585 38.261452,23.7378624 C38.4528697,23.1581578 38.6049066,22.5661841 38.7165245,21.9659845 C38.8423956,21.336629 39.0069963,20.7266382 39.0844554,20.0876003 C39.0844554,20.0876003 39.0844554,20.0876003 39.0844554,20.0876003 C39.1619146,20.1360122 40.0526947,20.4652136 40.0526947,20.4845784 C39.9791115,20.7187215 39.9240746,20.9582939 39.888094,21.2010755 C39.7183403,22.0227313 39.6856243,22.8668027 39.7912701,23.6991329 C39.8155656,24.2429616 40.0819802,24.7473733 40.5174496,25.0740327 C41.6309248,25.5775171 42.8024944,24.6576898 43.3059788,24.0089694 C43.9168941,24.4048636 44.688187,24.4596949 45.3489637,24.1542053 C46.6948164,23.505485 47.2854423,22.0724908 48.2536816,20.9783804 C48.3311408,20.8815565 49.1347794,20.0101411 49.2219209,20.0682355 C50.2883828,21.0543593 50.9738991,22.3842609 51.1583996,23.825004 C47.5680811,24.4526786 44.0467278,25.4254281 40.6433207,26.7297219 C39.0244579,27.2680779 37.503861,28.0659825 36.1410079,29.0922258 C34.6890904,30.0615207 33.871479,31.7374392 34.0011991,33.4783499 C34.2045293,36.044184 36.266879,37.1092472 38.9101724,37.2448007 C40.1850509,37.2694605 41.4550043,37.0796221 42.6669409,36.6832219 C48.2439992,35.008168 51.9620382,31.2223523 52.9012303,25.0643503 C56.2803855,24.1735701 69.44844,24.1929349 72.84696,24.957844 C73.7474225,25.1611742 74.6382027,25.3741869 75.55803,25.500058 C75.9687599,25.5917219 76.3991099,25.5112499 76.7489644,25.2773629 C77.0138768,24.9787503 76.992397,24.5233798 76.7005524,24.2510293 C75.7323131,23.4377083 74.0378943,23.28279 72.8275952,23.1278717" id="Shape"></path><path d="M80.2927202,5.84480009 C79.8473302,5.84480009 79.6149527,6.44510846 79.3922577,6.81303939 C78.8048592,7.69736462 78.2465078,8.60428211 77.7172037,9.53379184 C77.1653073,10.5020311 76.6424581,11.4702704 76.1292912,12.4385098 C75.6161244,13.4067491 75.1610519,14.4427651 74.6285203,15.449734 C74.3767781,15.9532184 74.1637654,16.4179733 73.931388,16.9698697 C73.6990106,17.5217661 73.4472684,17.938109 73.2148909,18.480323 C72.874505,19.1701427 72.5801621,19.881741 72.3337932,20.6104495 C72.2912658,20.5701177 72.2421433,20.5373694 72.1885573,20.5136256 C70.1939843,19.6034806 66.9697474,19.0419018 64.742797,18.3641343 C66.2338855,17.0182817 68.1122698,16.0984543 69.5839935,14.7526017 C70.3754093,14.090136 70.9851783,13.2371257 71.3558715,12.2739091 C71.774354,11.1992173 71.6405522,9.98776859 70.9976229,9.0303074 C69.816371,7.44239494 67.6378325,6.63875632 64.9461273,6.64843871 C64.4135956,6.64843871 63.881064,6.64843871 63.3485324,6.70653307 C62.4619051,6.76605533 61.5793816,6.87596668 60.7052391,7.03573443 C59.870933,7.18397671 59.0488689,7.39434745 58.2459113,7.66508998 C57.5197318,7.9168322 56.8129171,8.1976216 56.1061024,8.48809339 C54.8377089,9.00126022 52.7656768,10.1728298 52.5526642,11.4412233 C52.4802903,11.9228124 52.7320827,12.3949231 53.1723373,12.6031104 C54.2470829,13.1453244 54.9538976,11.828519 55.3799229,11.3153522 C56.2407534,10.2547574 57.3711736,9.44540334 58.6525718,8.97221304 C59.6277298,8.6309174 60.6325959,8.38132162 61.6541136,8.22666878 C63.772742,7.79996227 65.9637153,7.89970309 68.0348106,8.51714057 C69.0030499,8.86570672 69.7582766,9.29173201 69.8647829,10.4536192 C69.8671258,11.4368563 69.4848864,12.38203 68.7997197,13.0872301 C67.6109019,14.4046298 66.2571049,15.5631676 64.7718442,16.534162 C63.2070998,17.5646827 61.4683961,18.3028116 59.6401759,18.7127005 C58.7881253,18.9257131 57.9167099,19.1096786 57.0743417,19.3517384 C56.5008578,19.5205488 55.9382297,19.724259 55.3896053,19.9617292 C54.6731082,20.2715657 53.5305859,20.9299685 54.7602498,21.5690064 C55.1517664,21.74403 55.5857857,21.8012264 56.0092785,21.7336071 C57.6490021,21.6319883 59.2459784,21.1690966 60.6858743,20.3780721 C61.3937786,19.8991637 62.2456931,19.6801977 63.0967902,19.7583989 C64.8416205,19.8346807 66.5664999,20.1607449 68.2187761,20.7266382 C68.954638,20.9880628 70.3682674,21.5496416 71.123494,21.8013838 C71.4236482,21.8982078 71.9174503,22.14995 72.1691925,21.9175725 C72.2394408,21.8463722 72.2982326,21.7647169 72.3434755,21.6755127 C72.461781,21.9070529 72.6520555,22.0939296 72.8856896,22.2080443 C73.3213972,22.3823274 73.5828219,22.4985161 73.9507528,22.2080443 C74.3063687,21.8118901 74.5707769,21.3425656 74.7253442,20.8331445 C75.1513695,19.7293517 75.5386653,18.5190526 75.9550082,17.4055774 C76.3713511,16.2921022 76.7102348,15.2948157 77.2040369,14.2297525 C77.8430748,12.8742174 78.5692543,11.5380472 79.2663866,10.2115594 C79.5762232,9.62093338 82.4615763,5.66083462 80.2927202,5.84480009" id="Shape"></path></g></g></g></g></g></svg>