<svg xmlns="http://www.w3.org/2000/svg" xmlns:xlink="http://www.w3.org/1999/xlink" xmlns:svgjs="http://svgjs.com/svgjs" width="512" height="512" x="0" y="0" viewBox="0 0 512 512" style="enable-background:new 0 0 512 512" xml:space="preserve" class=""><g><path xmlns="http://www.w3.org/2000/svg" d="m354 364h-196c-5.523438 0-10-4.476562-10-10v-196c0-5.523438 4.476562-10 10-10h196c5.523438 0 10 4.476562 10 10v196c0 5.523438-4.476562 10-10 10zm-186-20h176v-176h-176zm0 0" fill="#124d6d" data-original="#000000" style="" class=""></path><path xmlns="http://www.w3.org/2000/svg" d="m118 364h-108c-5.523438 0-10-4.476562-10-10v-344c0-5.523438 4.476562-10 10-10h344c5.523438 0 10 4.476562 10 10v108c0 5.523438-4.476562 10-10 10h-226v226c0 5.523438-4.476562 10-10 10zm-98-20h88v-226c0-5.523438 4.476562-10 10-10h226v-88h-324zm0 0" fill="#124d6d" data-original="#000000" style="" class=""></path><path xmlns="http://www.w3.org/2000/svg" d="m502 512h-108c-5.523438 0-10-4.476562-10-10s4.476562-10 10-10h98v-324h-88v226c0 5.523438-4.476562 10-10 10h-226v88h146c5.523438 0 10 4.476562 10 10s-4.476562 10-10 10h-156c-5.523438 0-10-4.476562-10-10v-108c0-5.523438 4.476562-10 10-10h226v-226c0-5.523438 4.476562-10 10-10h108c5.523438 0 10 4.476562 10 10v344c0 5.523438-4.476562 10-10 10zm0 0" fill="#124d6d" data-original="#000000" style="" class=""></path><path xmlns="http://www.w3.org/2000/svg" d="m354 512c-2.628906 0-5.210938-1.070312-7.070312-2.929688-1.859376-1.859374-2.929688-4.441406-2.929688-7.070312s1.070312-5.210938 2.929688-7.070312c1.859374-1.859376 4.441406-2.929688 7.070312-2.929688s5.210938 1.070312 7.070312 2.929688c1.859376 1.859374 2.929688 4.441406 2.929688 7.070312s-1.070312 5.210938-2.929688 7.070312c-1.859374 1.859376-4.441406 2.929688-7.070312 2.929688zm0 0" fill="#124d6d" data-original="#000000" style="" class=""></path></g></svg>