<svg xmlns="http://www.w3.org/2000/svg" xmlns:xlink="http://www.w3.org/1999/xlink" xmlns:svgjs="http://svgjs.com/svgjs" width="512" height="512" x="0" y="0" viewBox="0 0 511.262 511.262" style="enable-background:new 0 0 512 512" xml:space="preserve" class=""><g><g xmlns="http://www.w3.org/2000/svg"><path d="m356.008 424.028c-4.143 0-7.5 3.358-7.5 7.5v71.291c0 4.142 3.357 7.5 7.5 7.5s7.5-3.358 7.5-7.5v-71.291c0-4.142-3.358-7.5-7.5-7.5z" fill="#124d6f" data-original="#000000" style="" class=""></path><path d="m364.22 321.092c-3.968-1.193-8.149 1.055-9.343 5.022l-6.053 20.123c-.21.701-.317 1.428-.317 2.16v51.168c0 4.142 3.357 7.5 7.5 7.5s7.5-3.358 7.5-7.5v-50.065l5.735-19.066c1.193-3.966-1.055-8.149-5.022-9.342z" fill="#124d6f" data-original="#000000" style="" class=""></path><path d="m178.211 412.366-74.579-.292c-9.159-.036-16.934-6.613-18.487-15.639l-3.253-18.907h22.985c5.471 0 10.614 2.13 14.481 5.998l9.376 9.377c1.465 1.464 3.384 2.197 5.304 2.197 1.919 0 3.839-.732 5.303-2.196 2.93-2.929 2.93-7.678.001-10.607l-9.376-9.377c-6.701-6.701-15.611-10.392-25.089-10.392h-25.566l-6.857-39.86c-.619-3.599-3.74-6.229-7.392-6.229h-26.616c.245-21.662 6.405-42.8 17.853-61.216l8.486-13.653c2.509-4.038 3.642-8.676 3.274-13.413l-3.326-43.043c-3.429-44.376 11.334-86.802 41.569-119.464s71.399-50.65 115.908-50.65c4.358 0 8.742.175 13.403.537 4.139.315 7.737-2.769 8.057-6.898.32-4.13-2.769-7.737-6.898-8.057-4.98-.386-9.88-.582-14.562-.582-24.587 0-48.322 5.04-70.548 14.98-21.396 9.57-40.36 23.189-56.367 40.479-16.006 17.291-28.123 37.248-36.016 59.318-8.199 22.925-11.396 46.979-9.501 71.492l3.326 43.044c.118 1.532-.248 3.032-1.06 4.338l-8.486 13.653c-13.162 21.177-20.12 45.551-20.12 70.485 0 7.526 6.124 13.65 13.65 13.65h21.653l11.619 67.539c2.791 16.216 16.759 28.032 33.212 28.096l74.579.292c7.72.03 14 6.335 14 14.054v62.342c0 4.142 3.357 7.5 7.5 7.5s7.5-3.358 7.5-7.5v-62.342c.001-15.957-12.982-28.991-28.94-29.054z" fill="#124d6f" data-original="#000000" style="" class=""></path><path d="m441.224 30.559h-218.278c-25.694 0-46.599 20.904-46.599 46.599v182.017c0 25.695 20.904 46.599 46.599 46.599h5.228l14.797 24.725c2.982 4.981 8.229 7.955 14.034 7.955 5.806 0 11.052-2.975 14.032-7.956l14.798-24.724h22.397c4.143 0 7.5-3.358 7.5-7.5s-3.357-7.5-7.5-7.5h-24.547c-3.919 0-7.604 2.089-9.618 5.453l-15.901 26.569c-.262.437-.652.658-1.162.658s-.9-.222-1.162-.659l-15.9-26.569c-2.014-3.363-5.699-5.452-9.618-5.452h-7.377c-.99 0-1.967-.052-2.934-.141l74.697-81.538h16.481l3.585 7.548c3.533 7.436 9.65 13.304 17.227 16.523l3.844 1.634 23.539 13.705 5.954 13.971c2.972 6.967 9.784 11.469 17.392 11.469 9.774 0 18.493-5.842 22.21-14.882 1.362-3.313 2.053-6.809 2.053-10.391v-17.938c0-6.624-1.396-13.037-4.146-19.061l-1.178-2.578h26.548c13.012 0 23.597-10.585 23.597-23.597 0-5.77-2.059-11.167-5.659-15.358 1.94-3.368 3.007-7.226 3.007-11.205 0-6.081-2.517-11.816-6.7-15.966 1.084-2.591 1.661-5.396 1.661-8.254 0-6.273-2.796-12.079-7.294-16.054 2.088-3.275 3.287-7.11 3.358-11.109.102-5.717-2.071-11.133-6.116-15.25-4.077-4.15-9.755-6.531-15.576-6.531h-10.806l36.693-40.053c15.948 1.589 28.444 15.082 28.444 31.441v182.017c0 17.424-14.176 31.599-31.6 31.599h-101.033c-4.143 0-7.5 3.358-7.5 7.5s3.357 7.5 7.5 7.5h101.029c25.695 0 46.6-20.904 46.6-46.599v-182.018c0-25.695-20.904-46.599-46.6-46.599zm-22.73 70.211c1.823 0 3.601.745 4.876 2.043 1.202 1.224 1.848 2.812 1.818 4.472-.04 2.278-1.312 4.381-3.319 5.488-2.707 1.494-4.389 4.334-4.389 7.441 0 3.941 2.79 7.413 6.63 8.254 2.904.638 5.012 3.265 5.012 6.246 0 1.82-.742 3.5-2.09 4.729-1.919 1.751-2.795 4.372-2.315 6.925.479 2.554 2.247 4.677 4.671 5.612 2.855 1.102 4.773 3.896 4.773 6.954 0 2.431-1.139 4.64-3.125 6.063-2.137 1.531-3.316 4.069-3.109 6.689s1.771 4.941 4.123 6.117c2.938 1.469 4.764 4.417 4.764 7.694 0 4.741-3.856 8.597-8.597 8.597h-33.197c-3.668 0-7.042 1.842-9.024 4.928-1.983 3.086-2.257 6.92-.733 10.256l3.94 8.626c1.853 4.054 2.791 8.37 2.791 12.828v17.938c0 1.616-.312 3.192-.926 4.687-1.396 3.394-4.668 5.586-8.371 5.586-1.553 0-2.949-.923-3.559-2.351l-6.93-16.259c-.634-1.486-1.729-2.728-3.126-3.541l-26.096-15.192c-.271-.158-.552-.298-.84-.421l-4.277-1.818c-4.198-1.784-7.588-5.035-9.545-9.154l-5.619-11.83c-1.242-2.616-3.879-4.282-6.774-4.282h-7.479l85.495-93.325zm-46.814 0h1.923l-85.495 93.325h-43.512c-4.143 0-7.5 3.358-7.5 7.5s3.357 7.5 7.5 7.5h29.77l-69.56 75.93c-8.131-5.723-13.459-15.173-13.459-25.85v-182.017c0-17.424 14.175-31.599 31.599-31.599h201.236l-36.838 40.211h-15.664c-4.143 0-7.5 3.358-7.5 7.5s3.358 7.5 7.5 7.5z" fill="#124d6f" data-original="#000000" style="" class=""></path><path d="m339.718 85.77h-4.284c-5.176 0-10.267 1.391-14.724 4.021l-6.827 4.03h-69.286c-4.143 0-7.5 3.358-7.5 7.5s3.357 7.5 7.5 7.5h71.334c1.341 0 2.657-.359 3.813-1.041l8.592-5.071c2.148-1.269 4.604-1.939 7.099-1.939h4.284c4.143 0 7.5-3.358 7.5-7.5s-3.359-7.5-7.501-7.5z" fill="#124d6f" data-original="#000000" style="" class=""></path></g></g></svg>